<mxfile host="app.diagrams.net" modified="2024-03-15T14:58:31.169Z" agent="Mozilla/5.0 (Macintosh; Intel Mac OS X 10_15_7) AppleWebKit/537.36 (KHTML, like Gecko) Chrome/121.0.0.0 Safari/537.36" etag="-IyVwsYA1FhFlV47u6xl" version="21.7.4" type="device">
  <diagram id="E4thPptGP3QlPo7lbxsf" name="Page-1">
    <mxGraphModel dx="1272" dy="691" grid="1" gridSize="10" guides="1" tooltips="1" connect="1" arrows="1" fold="1" page="1" pageScale="1" pageWidth="827" pageHeight="1169" math="0" shadow="0">
      <root>
        <mxCell id="0" />
        <mxCell id="1" parent="0" />
      </root>
    </mxGraphModel>
  </diagram>
</mxfile>
